<svg version="1.1" viewBox="0.0 0.0 960.0 720.0" fill="none" stroke="none" stroke-linecap="square" stroke-miterlimit="10" xmlns:xlink="http://www.w3.org/1999/xlink" xmlns="http://www.w3.org/2000/svg"><clipPath id="p.0"><path d="m0 0l960.0 0l0 720.0l-960.0 0l0 -720.0z" clip-rule="nonzero"/></clipPath><g clip-path="url(#p.0)"><path fill="#000000" fill-opacity="0.0" d="m0 0l960.0 0l0 720.0l-960.0 0z" fill-rule="evenodd"/><path fill="#efefef" d="m265.35434 83.32284l429.29135 0l0 429.29135l-429.29135 0z" fill-rule="evenodd"/><path stroke="#000000" stroke-width="1.0" stroke-linejoin="round" stroke-linecap="butt" d="m265.35434 83.32284l429.29135 0l0 429.29135l-429.29135 0z" fill-rule="evenodd"/><path fill="#cfe2f3" d="m311.5433 466.41995l0 0c0 -92.91855 75.237335 -168.2904 168.15573 -168.45642c92.918396 -0.16601562 168.42456 74.93652 168.75659 167.85446l-168.45563 0.6019592z" fill-rule="evenodd"/><path stroke="#000000" stroke-width="1.0" stroke-linejoin="round" stroke-linecap="butt" d="m311.5433 466.41995l0 0c0 -92.91855 75.237335 -168.2904 168.15573 -168.45642c92.918396 -0.16601562 168.42456 74.93652 168.75659 167.85446l-168.45563 0.6019592z" fill-rule="evenodd"/><path fill="#f3f3f3" d="m363.16534 247.24934l0 0c0 -64.525986 52.308655 -116.83464 116.834656 -116.83464l0 0c30.98648 0 60.703796 12.309326 82.61456 34.220078c21.910767 21.910736 34.220093 51.628082 34.220093 82.61456l0 0c0 64.525986 -52.308655 116.83464 -116.834656 116.83464l0 0c-64.526 0 -116.834656 -52.308655 -116.834656 -116.83464z" fill-rule="evenodd"/><path stroke="#000000" stroke-width="1.0" stroke-linejoin="round" stroke-linecap="butt" d="m363.16534 247.24934l0 0c0 -64.525986 52.308655 -116.83464 116.834656 -116.83464l0 0c30.98648 0 60.703796 12.309326 82.61456 34.220078c21.910767 21.910736 34.220093 51.628082 34.220093 82.61456l0 0c0 64.525986 -52.308655 116.83464 -116.834656 116.83464l0 0c-64.526 0 -116.834656 -52.308655 -116.834656 -116.83464z" fill-rule="evenodd"/></g></svg>